# xmcd
#
# Track frame offsets: 
#        150
#        16106
#        31324
#        45180
#        58049
#        72616
#        87665
#        104993
#        121061
#        138733
#        161158
#
# Disc length: 2343 seconds
#
# Revision: 0
# Processed by: cddbd v1.5.2PL0 Copyright (c) Steve Scherf et al.
# Submitted via: ExactAudioCopyFreeDBPlugin 1.0
#
DISCID=9c09250b
DTITLE=Jake Owen - Barefoot Blue Jean Night
DYEAR=1900
DGENRE=Country
TTITLE0=Anywhere With You 
TTITLE1=Keepin' It Country
TTITLE2=Wide Awake
TTITLE3=Barefoot Blue Jean Night 
TTITLE4=Heaven
TTITLE5=Apple Pie Moonshine
TTITLE6=The Journey Of Your Life 
TTITLE7=Alone With You 
TTITLE8=Settin' The World On Fire
TTITLE9=Nobody Feelin' No Pain 
TTITLE10=The One That Got Away 
EXTD=
EXTT0=
EXTT1=
EXTT2=
EXTT3=
EXTT4=
EXTT5=
EXTT6=
EXTT7=
EXTT8=
EXTT9=
EXTT10=
PLAYORDER=
